<?xml version="1.0" standalone="no"?>
<!DOCTYPE svg PUBLIC "-//W3C//DTD SVG 20010904//EN"
 "http://www.w3.org/TR/2001/REC-SVG-20010904/DTD/svg10.dtd">
<svg version="1.0" xmlns="http://www.w3.org/2000/svg"
 width="256.000000pt" height="256.000000pt" viewBox="0 0 256.000000 256.000000"
 preserveAspectRatio="xMidYMid meet">
<metadata>
Created by potrace 1.16, written by Peter Selinger 2001-2019
</metadata>
<g transform="translate(0.000000,256.000000) scale(0.100000,-0.100000)"
fill="#000000" stroke="none">
<path d="M400 2441 c0 -4 5 -12 12 -19 10 -10 0 -25 -45 -69 l-57 -58 -63 63
-63 63 -25 -28 c-13 -15 -17 -22 -8 -16 13 10 25 2 74 -47 58 -58 58 -60 40
-80 -23 -25 -23 -25 -65 12 l-35 30 38 -27 c55 -39 54 -27 -1 14 -25 19 -42
29 -38 22 4 -6 2 -11 -3 -11 -8 0 -11 -306 -11 -1010 0 -704 3 -1010 11 -1010
5 0 7 -5 3 -11 -4 -7 13 3 38 22 55 41 56 53 1 14 l-38 -28 40 35 39 35 17
-21 c17 -20 16 -22 -39 -78 -53 -54 -57 -57 -74 -41 -10 9 -21 13 -25 10 -3
-4 15 -28 41 -53 25 -26 49 -44 53 -40 4 3 -1 14 -10 23 -16 16 -14 21 40 75
l57 58 58 -57 58 -57 -22 -23 -21 -23 24 0 c14 0 30 5 35 10 8 8 15 6 23 -4 6
-8 21 -12 32 -9 l20 6 -20 21 -21 22 60 59 60 60 57 -57 57 -57 -23 -25 c-21
-22 -21 -24 -4 -28 10 -3 26 2 36 11 13 11 20 12 29 3 7 -7 21 -12 32 -12 19
0 19 1 -2 23 l-22 23 60 59 60 59 60 -59 60 -59 -21 -22 c-15 -16 -17 -23 -7
-27 7 -2 21 2 31 11 15 13 19 13 35 0 9 -8 25 -13 35 -10 17 4 17 6 -4 28
l-23 25 57 57 57 57 60 -60 60 -59 -21 -22 -20 -21 20 -6 c11 -3 26 1 32 9 10
13 14 13 28 0 9 -8 24 -11 34 -7 17 6 17 8 -3 26 l-21 19 58 58 57 58 58 -57
58 -57 -21 -22 -20 -21 20 -6 c11 -3 26 1 32 9 10 13 14 13 28 0 9 -8 24 -11
34 -7 17 6 17 8 -3 26 l-21 19 58 58 57 58 58 -57 58 -57 -22 -23 -21 -23 24
0 c14 0 30 5 35 10 8 8 15 6 23 -4 6 -8 21 -12 32 -9 l20 6 -20 21 -21 22 60
59 60 59 60 -59 60 -59 -21 -22 c-15 -16 -17 -23 -7 -27 7 -2 21 2 31 11 15
14 19 14 35 0 9 -9 23 -13 30 -11 10 4 8 11 -7 27 l-21 22 60 59 60 59 58 -57
c32 -31 63 -57 70 -57 25 0 10 26 -45 82 l-57 58 54 55 c38 39 60 53 72 49 15
-5 18 1 18 37 0 33 -3 39 -13 31 -10 -9 -27 2 -72 48 l-59 60 54 55 c35 36 60
53 71 50 12 -4 16 3 17 36 2 34 -1 40 -16 35 -12 -4 -34 10 -72 49 l-54 55 54
55 c38 39 60 53 72 49 15 -4 18 1 18 36 0 35 -3 40 -18 36 -12 -4 -34 10 -72
49 l-54 55 59 60 c45 46 62 57 72 48 10 -8 13 -2 13 31 0 36 -3 42 -18 37 -12
-4 -34 11 -75 52 l-57 58 58 57 c41 41 63 56 75 51 14 -5 17 1 17 36 0 34 -3
40 -13 32 -10 -9 -27 2 -72 48 l-59 60 54 55 c38 39 60 53 72 49 15 -4 18 1
18 36 0 35 -3 40 -18 36 -12 -4 -34 10 -72 49 l-54 55 54 55 c30 30 61 54 70
52 11 -1 16 9 18 36 3 34 1 38 -15 33 -14 -4 -34 9 -73 49 l-54 55 57 58 c45
45 55 60 45 70 -10 10 -25 0 -70 -45 l-58 -58 -57 58 c-45 44 -55 59 -45 69
21 21 14 26 -38 26 -52 0 -59 -5 -38 -26 10 -10 0 -25 -45 -69 l-57 -58 -60
60 c-54 54 -58 60 -44 76 14 15 11 17 -35 17 -53 0 -60 -5 -39 -26 10 -10 0
-25 -45 -69 l-57 -58 -60 60 c-39 39 -56 63 -50 69 19 19 10 24 -35 24 -45 0
-54 -5 -35 -24 6 -6 -11 -30 -50 -69 l-60 -60 -57 58 c-45 44 -55 59 -45 69
21 21 14 26 -39 26 -46 0 -49 -2 -35 -17 14 -16 10 -22 -44 -76 l-60 -60 -57
58 c-45 44 -55 59 -45 69 21 21 14 26 -38 26 -52 0 -59 -5 -38 -26 10 -10 0
-25 -45 -70 l-57 -57 -57 57 c-45 45 -55 60 -45 70 21 21 14 26 -38 26 -52 0
-59 -5 -38 -26 10 -10 0 -25 -45 -69 l-57 -58 -60 60 c-54 54 -58 60 -44 76
14 15 11 17 -35 17 -28 0 -51 -3 -51 -7z m107 -228 l-57 -58 -60 60 -60 59 57
58 58 58 60 -60 60 -60 -58 -57z m843 2 c-50 -50 -58 -63 -48 -75 11 -12 10
-12 -4 -1 -10 7 -16 18 -15 23 1 6 -4 13 -12 16 -10 3 -11 0 -5 -9 6 -12 5
-12 -9 0 -10 8 -15 16 -12 19 3 3 -11 23 -32 44 l-37 38 59 60 59 60 58 -57
58 -57 -60 -61z m285 -5 l-60 -60 -60 60 -59 60 59 60 60 60 60 -60 60 -60
-60 -60z m282 3 l-57 -58 -60 60 -60 59 57 58 58 58 60 -60 60 -60 -58 -57z
m-1127 112 l55 -55 -58 -58 -57 -57 -57 57 -58 58 55 55 c30 30 57 55 60 55 3
0 30 -25 60 -55z m280 2 c30 -29 51 -49 46 -45 -18 15 -26 8 -27 -24 0 -25
-10 -41 -40 -67 l-40 -34 -57 56 -57 57 55 55 c30 30 57 55 60 55 3 -1 30 -24
60 -53z m1130 -2 l55 -55 -58 -58 -57 -57 -57 57 -58 58 55 55 c30 30 57 55
60 55 3 0 30 -25 60 -55z m-700 -249 l-54 -53 -63 49 c-35 28 -63 52 -63 55 0
2 26 31 57 64 l57 60 60 -61 61 -60 -55 -54z m275 -6 l-60 -60 -60 60 -59 60
59 60 60 60 60 -60 60 -60 -60 -60z m-1125 115 l55 -55 -58 -58 -57 -57 -57
57 -58 58 55 55 c30 30 57 55 60 55 3 0 30 -25 60 -55z m280 0 l55 -55 -58
-58 -57 -57 -57 57 -58 58 55 55 c30 30 57 55 60 55 3 0 30 -25 60 -55z m1130
0 l55 -55 -58 -58 -57 -57 -57 57 -58 58 55 55 c30 30 57 55 60 55 3 0 30 -25
60 -55z m280 0 l55 -55 -58 -58 -57 -57 -57 57 -58 58 55 55 c30 30 57 55 60
55 3 0 30 -25 60 -55z m-688 -238 c-23 -24 -39 -47 -35 -52 5 -5 -29 20 -74
54 -46 35 -83 65 -83 68 0 2 4 2 8 -1 5 -3 31 17 58 45 l49 49 60 -60 59 -60
-42 -43z m-862 98 l55 -55 -58 -58 -57 -57 -57 57 -58 58 55 55 c30 30 57 55
60 55 3 0 30 -25 60 -55z m263 20 c32 -31 37 -41 36 -78 -1 -36 -6 -47 -40
-76 l-40 -34 -57 56 -57 57 55 55 c30 30 57 55 60 55 3 0 22 -16 43 -35z m867
-20 l54 -55 -59 -60 -59 -60 -58 57 -58 57 57 58 c32 32 60 58 63 58 3 0 30
-25 60 -55z m280 0 l55 -55 -58 -58 -57 -57 -57 57 -58 58 55 55 c30 30 57 55
60 55 3 0 30 -25 60 -55z m-1270 -140 l54 -55 -52 -53 c-43 -43 -50 -55 -40
-67 7 -7 -24 15 -69 50 -46 34 -83 65 -83 68 0 3 2 3 5 0 3 -3 31 21 62 53 31
33 59 59 62 59 4 0 31 -25 61 -55z m850 0 l54 -55 -32 -33 c-28 -29 -31 -36
-18 -46 12 -10 20 -7 45 21 l30 33 58 -58 58 -58 -27 -23 c-15 -13 -24 -28
-20 -32 4 -4 -22 15 -58 42 -205 158 -240 186 -240 191 0 3 8 -1 17 -8 13 -11
15 -11 9 -1 -6 9 3 25 25 48 18 19 36 34 39 34 3 0 30 -25 60 -55z m280 0 l54
-55 -59 -60 -59 -60 -58 57 -58 57 57 58 c32 32 60 58 63 58 3 0 30 -25 60
-55z m280 0 l55 -55 -58 -58 -57 -57 -57 57 -58 58 55 55 c30 30 57 55 60 55
3 0 30 -25 60 -55z m-1287 -120 c32 -30 37 -41 37 -78 0 -33 -6 -49 -24 -66
-14 -13 -26 -18 -30 -12 -3 5 -25 24 -49 41 l-42 32 43 -38 42 -39 0 -347 0
-347 -55 -42 c-30 -23 -55 -44 -55 -46 0 -6 66 42 100 73 24 22 26 22 48 4 17
-14 22 -28 21 -62 -1 -37 -6 -47 -40 -77 l-40 -34 -51 50 -50 51 56 42 56 42
0 348 0 348 -55 41 c-30 23 -55 44 -55 47 0 7 92 104 99 104 3 0 23 -16 44
-35z m1147 -20 l54 -55 -59 -60 -59 -60 -58 57 -58 57 57 58 c32 32 60 58 63
58 3 0 30 -25 60 -55z m143 -143 l57 -58 -60 -59 -60 -59 -60 59 -60 59 57 58
c32 32 60 58 63 58 3 0 31 -26 63 -58z m-3 -567 l55 -55 -58 -58 -57 -57 -57
57 -58 58 55 55 c30 30 57 55 60 55 3 0 30 -25 60 -55z m-243 -22 c-4 -3 -2
-12 5 -20 9 -12 1 -25 -45 -70 -48 -49 -58 -55 -72 -43 -14 12 -13 15 7 38 13
14 -23 -10 -79 -53 -57 -43 -103 -80 -103 -82 0 -6 89 59 102 74 14 17 33 16
49 -3 11 -13 4 -23 -44 -72 l-56 -56 -30 28 -29 28 -66 -52 c-80 -63 -88 -77
-10 -19 l55 42 27 -26 26 -27 -59 -60 -59 -60 -33 32 c-19 19 -31 38 -28 47 5
12 3 12 -12 0 -16 -12 -17 -11 -3 3 8 9 114 93 235 187 195 150 245 188 222
164z m103 -118 l55 -55 -58 -58 -57 -57 -57 57 -58 58 55 55 c30 30 57 55 60
55 3 0 30 -25 60 -55z m-1307 -86 c-7 -7 5 -25 41 -59 l51 -49 -57 -58 -58
-58 -58 58 c-32 32 -60 56 -63 55 -18 -11 17 20 76 66 66 52 93 70 68 45z
m1167 -54 l55 -55 -58 -58 -57 -57 -57 57 -58 58 55 55 c30 30 57 55 60 55 3
0 30 -25 60 -55z m280 0 l55 -55 -58 -58 -57 -57 -57 57 -58 58 55 55 c30 30
57 55 60 55 3 0 30 -25 60 -55z m-1545 -144 l50 -51 -58 -58 -57 -57 -57 57
-58 58 50 50 c27 27 46 50 42 50 -5 0 -5 5 -2 10 9 15 33 -1 90 -59z m258 24
c32 -31 37 -41 36 -78 -1 -36 -6 -47 -40 -76 l-40 -34 -57 56 -57 57 55 55
c30 30 57 55 60 55 3 0 22 -16 43 -35z m867 -20 l54 -55 -59 -60 -59 -60 -58
57 -58 57 57 58 c32 32 60 58 63 58 3 0 30 -25 60 -55z m280 0 l55 -55 -58
-58 -57 -57 -57 57 -58 58 55 55 c30 30 57 55 60 55 3 0 30 -25 60 -55z m-582
29 c-3 -3 13 -23 36 -44 l41 -39 -60 -61 -61 -60 -43 44 -43 43 61 48 c34 26
61 50 61 53 0 2 -6 0 -12 -5 -7 -6 -43 -33 -80 -62 l-66 -52 49 -46 50 -47
-58 -58 -57 -58 -58 57 c-46 46 -60 54 -71 44 -12 -9 -5 -21 45 -69 l59 -57
-58 -58 -59 -57 -59 60 -59 59 20 22 c10 11 18 24 17 27 -2 4 3 7 10 7 7 0 26
11 42 24 l30 23 -30 -17 c-49 -29 -19 -3 170 144 156 122 205 158 183 135z
m-968 -169 l54 -55 -59 -60 -59 -60 -58 57 -58 57 57 58 c32 32 60 58 63 58 3
0 30 -25 60 -55z m280 0 l55 -55 -58 -58 -57 -57 -57 57 -58 58 55 55 c30 30
57 55 60 55 3 0 30 -25 60 -55z m850 0 l54 -55 -59 -60 -59 -60 -58 57 -58 57
57 58 c32 32 60 58 63 58 3 0 30 -25 60 -55z m280 0 l54 -55 -59 -60 -59 -60
-58 57 -58 57 57 58 c32 32 60 58 63 58 3 0 30 -25 60 -55z m283 -3 l57 -58
-58 -57 -58 -57 -59 60 -59 60 54 55 c30 30 57 55 60 55 3 0 31 -26 63 -58z
m-1833 -137 l54 -55 -59 -60 -59 -60 -58 57 -58 57 57 58 c32 32 60 58 63 58
3 0 30 -25 60 -55z m280 0 l54 -55 -59 -60 -59 -60 -58 57 -58 57 57 58 c32
32 60 58 63 58 3 0 30 -25 60 -55z m262 18 c25 -26 37 -50 40 -75 3 -33 -1
-43 -37 -78 l-41 -40 -59 60 -59 60 54 55 c30 30 57 55 60 55 3 0 22 -17 42
-37z m581 -135 l-57 -58 -58 57 -58 57 57 58 57 58 58 -57 58 -57 -57 -58z
m287 117 l54 -55 -59 -60 -59 -60 -58 57 -58 57 57 58 c32 32 60 58 63 58 3 0
30 -25 60 -55z m283 -3 l57 -58 -60 -59 -60 -59 -60 59 -60 59 57 58 c32 32
60 58 63 58 3 0 31 -26 63 -58z"/>
</g>
</svg>
