<?xml version="1.0" standalone="no"?>
<!DOCTYPE svg PUBLIC "-//W3C//DTD SVG 20010904//EN"
 "http://www.w3.org/TR/2001/REC-SVG-20010904/DTD/svg10.dtd">
<svg version="1.0" xmlns="http://www.w3.org/2000/svg"
 width="300.000000pt" height="300.000000pt" viewBox="0 0 300.000000 300.000000"
 preserveAspectRatio="xMidYMid meet">
<metadata>
Created by potrace 1.16, written by Peter Selinger 2001-2019
</metadata>
<g transform="translate(0.000000,300.000000) scale(0.100000,-0.100000)"
fill="#000000" stroke="none">
<path d="M1245 2984 c-621 -115 -1086 -566 -1221 -1184 -15 -68 -19 -127 -19
-300 0 -173 4 -232 19 -300 65 -299 205 -557 415 -765 211 -210 463 -346 761
-411 122 -27 478 -27 600 0 496 108 892 434 1086 891 89 209 119 385 111 645
-8 248 -46 400 -153 615 -200 403 -569 690 -1023 797 -116 27 -457 35 -576 12z
m430 -499 c204 -36 377 -127 530 -280 208 -208 305 -458 292 -750 -12 -259
-108 -477 -291 -661 -131 -131 -278 -215 -464 -266 -111 -31 -373 -31 -484 0
-186 51 -333 135 -464 266 -183 184 -279 402 -291 661 -29 641 539 1140 1172
1030z"/>
<path d="M1401 1990 c-25 -5 -78 -26 -119 -45 -189 -90 -305 -304 -275 -509
31 -220 199 -390 421 -428 197 -33 420 80 511 260 58 115 73 225 46 340 -40
171 -155 300 -320 361 -67 25 -196 35 -264 21z"/>
</g>
</svg>
