<?xml version="1.0" standalone="no"?>
<!DOCTYPE svg PUBLIC "-//W3C//DTD SVG 20010904//EN"
 "http://www.w3.org/TR/2001/REC-SVG-20010904/DTD/svg10.dtd">
<svg version="1.0" xmlns="http://www.w3.org/2000/svg"
 width="1200.000000pt" height="1131.000000pt" viewBox="0 0 1200.000000 1131.000000"
 preserveAspectRatio="xMidYMid meet">
<metadata>
Created by potrace 1.16, written by Peter Selinger 2001-2019
</metadata>
<g transform="translate(0.000000,1131.000000) scale(0.100000,-0.100000)"
fill="#000000" stroke="none">
<path d="M5948 10894 c-2 -5 -297 -910 -654 -2011 l-649 -2003 -2118 -2 -2118
-3 1711 -1244 c1624 -1180 1712 -1245 1706 -1270 -3 -14 -296 -919 -650 -2011
-355 -1091 -644 -1986 -642 -1987 2 -2 771 555 1710 1238 939 682 1712 1238
1719 1235 7 -3 775 -560 1707 -1239 932 -678 1696 -1228 1698 -1222 1 5 -290
910 -647 2010 l-649 2000 67 48 c36 26 807 586 1713 1245 l1647 1197 -2120 3
c-1165 1 -2119 4 -2119 7 0 7 -1289 3978 -1298 3999 -5 11 -11 16 -14 10z"/>
</g>
</svg>
