<?xml version="1.0" standalone="no"?>
<!DOCTYPE svg PUBLIC "-//W3C//DTD SVG 20010904//EN"
 "http://www.w3.org/TR/2001/REC-SVG-20010904/DTD/svg10.dtd">
<svg version="1.0" xmlns="http://www.w3.org/2000/svg"
 width="880.000000pt" height="896.000000pt" viewBox="0 0 880.000000 896.000000"
 preserveAspectRatio="xMidYMid meet">

<g transform="translate(0.000000,896.000000) scale(0.100000,-0.100000)"
fill="#000000" stroke="none">
<path d="M4245 8549 c-157 -20 -360 -98 -496 -190 -90 -61 -238 -207 -299
-295 -187 -271 -253 -595 -185 -910 5 -21 1 -21 -143 -27 -220 -8 -366 -51
-506 -151 -79 -56 -188 -172 -249 -263 -62 -94 -154 -288 -205 -433 -35 -101
-140 -385 -440 -1190 -152 -408 -735 -1976 -807 -2170 -40 -107 -163 -440
-275 -740 -223 -600 -245 -678 -237 -820 7 -109 27 -172 79 -250 121 -182 393
-290 803 -320 192 -14 6049 -14 6200 0 148 14 260 35 375 72 411 131 592 390
524 749 -10 56 -281 822 -831 2349 -649 1806 -829 2293 -883 2405 -161 329
-352 547 -575 656 -140 68 -327 109 -498 109 -65 0 -67 1 -62 23 42 194 31
421 -31 607 -74 222 -226 430 -419 575 -227 170 -543 251 -840 214z m288 -544
c118 -25 211 -77 302 -169 131 -131 185 -259 185 -440 0 -88 -19 -185 -46
-238 l-15 -28 -559 0 -559 0 -15 28 c-45 87 -59 269 -31 391 38 160 176 331
327 404 130 64 271 82 411 52z"/>
</g>
</svg>
